<svg xmlns="http://www.w3.org/2000/svg" xmlns:xlink="http://www.w3.org/1999/xlink" width="1024" zoomAndPan="magnify" viewBox="0 0 768 767.999994" height="1024" preserveAspectRatio="xMidYMid meet" version="1.0"><defs><clipPath id="09282b5c2f"><path d="M 384 344.648438 L 489.75 344.648438 L 489.75 450.398438 L 384 450.398438 Z M 384 344.648438 " clip-rule="nonzero"/></clipPath></defs><path fill="#e76324" d="M 29.132812 734.554688 C 30.988281 730.882812 165.480469 472.339844 254.21875 372.292969 C 342.960938 272.242188 380.882812 232.714844 445.417969 302.101562 C 509.953125 371.488281 559.664062 404.089844 473.128906 482.59375 C 386.589844 561.097656 73.425781 764.066406 43.292969 766.15625 C 15.859375 768 18.355469 755.738281 29.132812 734.554688 Z M 29.132812 734.554688 " fill-opacity="1" fill-rule="nonzero"/><path fill="#f47820" d="M 18.578125 725.753906 C 20.433594 722.082031 154.921875 463.542969 243.664062 363.496094 C 332.402344 263.445312 370.324219 223.914062 434.859375 293.304688 C 499.394531 362.691406 549.109375 395.292969 462.570312 473.796875 C 376.03125 552.300781 61.304688 761.597656 31.074219 763.675781 C 3.695312 765.574219 7.839844 746.941406 18.578125 725.753906 Z M 18.578125 725.753906 " fill-opacity="1" fill-rule="nonzero"/><path fill="#75ab42" d="M 435.582031 293.800781 C 435.582031 293.800781 499.410156 248.078125 474.804688 196.082031 C 474.804688 196.082031 439.988281 204.28125 432.449219 197.300781 C 424.914062 190.316406 421.546875 179.925781 429.011719 173.414062 C 426.082031 173.152344 423.207031 172.597656 420.386719 171.753906 C 417.566406 170.910156 414.863281 169.792969 412.269531 168.402344 C 409.675781 167.007812 407.25 165.371094 404.988281 163.488281 C 402.726562 161.605469 400.675781 159.515625 398.835938 157.214844 C 386.464844 141.628906 407.71875 134.894531 407.71875 134.894531 C 407.71875 134.894531 376.515625 123.0625 371.945312 103.429688 C 367.371094 83.796875 393.460938 86.804688 393.460938 86.804688 C 393.460938 86.804688 381.089844 49.683594 391.300781 45.390625 C 400.789062 41.386719 418.859375 44.117188 426.132812 49.699219 C 426.664062 50.121094 427.15625 50.582031 427.613281 51.085938 C 427.613281 51.085938 435.675781 27.960938 449.671875 37.644531 C 463.664062 47.328125 468.761719 66.421875 468.761719 66.421875 C 468.761719 66.421875 487.050781 62.113281 491.625 69.914062 C 496.195312 77.714844 504.523438 93.578125 502.636719 102.460938 C 500.753906 111.339844 516.105469 98.304688 520.648438 102.585938 C 525.195312 106.867188 538.066406 107.699219 519.914062 153.019531 C 501.765625 198.339844 505.660156 186.632812 505.660156 186.632812 L 512.378906 236.925781 C 512.378906 236.925781 564.820312 193.628906 555.410156 147.640625 C 546.003906 101.65625 565.898438 82.285156 582.566406 108.097656 C 582.566406 108.097656 586.875 46.25 603.542969 46.789062 C 620.210938 47.328125 627.207031 66.6875 627.207031 66.6875 C 627.207031 66.6875 653.53125 -0.015625 668.898438 14.242188 C 671.160156 16.402344 673.199219 18.757812 675.007812 21.308594 C 676.816406 23.863281 678.363281 26.566406 679.652344 29.417969 C 680.9375 32.269531 681.9375 35.21875 682.652344 38.265625 C 683.367188 41.3125 683.785156 44.398438 683.902344 47.523438 C 683.902344 47.523438 716.167969 13.09375 733.390625 32.464844 L 453.203125 312.617188 Z M 435.582031 293.800781 " fill-opacity="1" fill-rule="nonzero"/><path fill="#4a8b40" d="M 470.398438 329.285156 C 470.398438 329.285156 516.117188 265.453125 568.117188 290.0625 C 568.117188 290.0625 559.914062 324.878906 566.910156 332.417969 C 573.90625 339.953125 584.269531 343.335938 590.78125 335.851562 C 591.042969 338.785156 591.597656 341.660156 592.441406 344.480469 C 593.285156 347.296875 594.402344 350.003906 595.796875 352.597656 C 597.1875 355.191406 598.824219 357.617188 600.707031 359.878906 C 602.589844 362.140625 604.679688 364.191406 606.980469 366.03125 C 622.578125 378.402344 629.300781 357.164062 629.300781 357.164062 C 629.300781 357.164062 641.132812 388.351562 660.765625 392.921875 C 680.394531 397.496094 677.390625 371.417969 677.390625 371.417969 C 677.390625 371.417969 714.492188 383.777344 718.800781 373.566406 C 722.792969 364.074219 720.0625 346.023438 714.492188 338.734375 C 714.074219 338.199219 713.613281 337.707031 713.109375 337.253906 C 713.109375 337.253906 736.246094 329.1875 726.5625 315.207031 C 716.875 301.226562 697.785156 296.117188 697.785156 296.117188 C 697.785156 296.117188 702.078125 277.828125 694.292969 273.253906 C 686.507812 268.683594 670.613281 260.339844 661.746094 262.171875 C 652.878906 264 665.902344 248.703125 661.609375 244.160156 C 657.3125 239.613281 656.496094 226.742188 611.191406 244.90625 C 565.886719 263.070312 577.566406 259.148438 577.566406 259.148438 L 527.382812 252.582031 C 527.382812 252.582031 570.679688 200.140625 616.664062 209.546875 C 662.648438 218.957031 682.015625 199.058594 656.191406 182.390625 C 656.191406 182.390625 718.054688 178.082031 717.515625 161.414062 C 716.972656 144.746094 697.605469 137.75 697.605469 137.75 C 697.605469 137.75 764.300781 111.425781 750.046875 96.058594 C 747.886719 93.785156 745.527344 91.742188 742.972656 89.925781 C 740.414062 88.109375 737.710938 86.554688 734.851562 85.265625 C 731.996094 83.972656 729.039062 82.96875 725.988281 82.25 C 722.9375 81.535156 719.84375 81.117188 716.710938 81 C 716.710938 81 751.125 48.730469 731.769531 31.519531 L 451.582031 311.660156 Z M 470.398438 329.285156 " fill-opacity="1" fill-rule="nonzero"/><path fill="#d35127" d="M 292.570312 309.957031 C 292.570312 309.957031 294.898438 333.648438 323.132812 359.835938 C 351.371094 386.023438 350.96875 384.445312 350.96875 384.445312 C 350.96875 384.445312 275.695312 366.984375 263.417969 341.324219 Z M 292.570312 309.957031 " fill-opacity="1" fill-rule="nonzero"/><path fill="#d35127" d="M 179.554688 449.589844 C 179.554688 449.589844 185.554688 472.632812 217.53125 494.121094 C 249.507812 515.613281 248.871094 514.085938 248.871094 514.085938 C 248.871094 514.085938 171.796875 508.546875 155.65625 485.15625 Z M 179.554688 449.589844 " fill-opacity="1" fill-rule="nonzero"/><path fill="#d35127" d="M 403.839844 536.617188 C 403.839844 536.617188 380.285156 529.894531 358.851562 497.917969 C 337.417969 465.941406 338.886719 466.578125 338.886719 466.578125 C 338.886719 466.578125 346.273438 546.078125 369.714844 562.179688 Z M 403.839844 536.617188 " fill-opacity="1" fill-rule="nonzero"/><path fill="#d35127" d="M 264 634.765625 C 264 634.765625 240.808594 628.835938 223.738281 602.898438 C 206.671875 576.964844 208.042969 577.421875 208.042969 577.421875 C 208.042969 577.421875 207.558594 646.074219 227.894531 657.976562 Z M 264 634.765625 " fill-opacity="1" fill-rule="nonzero"/><path fill="#d35127" d="M 92.5625 591.109375 C 92.5625 591.109375 97.785156 609.730469 120.105469 624.582031 C 142.425781 639.4375 142.023438 638.300781 142.023438 638.300781 C 142.023438 638.300781 86.242188 637.457031 75.519531 620.453125 Z M 92.5625 591.109375 " fill-opacity="1" fill-rule="nonzero"/><g clip-path="url(#09282b5c2f)"><path fill="#f47820" d="M 489.667969 397.480469 C 489.667969 399.210938 489.582031 400.9375 489.414062 402.660156 C 489.242188 404.382812 488.992188 406.09375 488.652344 407.789062 C 488.316406 409.488281 487.894531 411.164062 487.394531 412.820312 C 486.890625 414.476562 486.308594 416.101562 485.644531 417.699219 C 484.984375 419.300781 484.246094 420.863281 483.429688 422.386719 C 482.613281 423.914062 481.726562 425.394531 480.765625 426.835938 C 479.800781 428.273438 478.773438 429.660156 477.675781 431 C 476.578125 432.335938 475.417969 433.617188 474.191406 434.839844 C 472.96875 436.066406 471.6875 437.226562 470.351562 438.324219 C 469.015625 439.421875 467.625 440.449219 466.1875 441.410156 C 464.75 442.375 463.265625 443.261719 461.738281 444.078125 C 460.214844 444.894531 458.652344 445.632812 457.050781 446.292969 C 455.453125 446.957031 453.828125 447.539062 452.171875 448.039062 C 450.515625 448.542969 448.839844 448.964844 447.140625 449.300781 C 445.445312 449.636719 443.734375 449.890625 442.011719 450.0625 C 440.289062 450.230469 438.5625 450.316406 436.832031 450.316406 C 435.105469 450.316406 433.378906 450.230469 431.65625 450.0625 C 429.933594 449.890625 428.222656 449.636719 426.527344 449.300781 C 424.828125 448.964844 423.152344 448.542969 421.496094 448.039062 C 419.839844 447.539062 418.214844 446.957031 416.617188 446.292969 C 415.015625 445.632812 413.453125 444.894531 411.929688 444.078125 C 410.402344 443.261719 408.917969 442.375 407.480469 441.410156 C 406.042969 440.449219 404.652344 439.421875 403.316406 438.324219 C 401.980469 437.226562 400.699219 436.066406 399.476562 434.839844 C 398.25 433.617188 397.089844 432.335938 395.992188 431 C 394.894531 429.660156 393.867188 428.273438 392.902344 426.835938 C 391.941406 425.394531 391.054688 423.914062 390.238281 422.386719 C 389.421875 420.863281 388.683594 419.300781 388.023438 417.699219 C 387.359375 416.101562 386.777344 414.476562 386.273438 412.820312 C 385.773438 411.164062 385.351562 409.488281 385.015625 407.789062 C 384.675781 406.09375 384.425781 404.382812 384.253906 402.660156 C 384.085938 400.9375 384 399.210938 384 397.480469 C 384 395.75 384.085938 394.023438 384.253906 392.304688 C 384.425781 390.582031 384.675781 388.871094 385.015625 387.175781 C 385.351562 385.476562 385.773438 383.800781 386.273438 382.144531 C 386.777344 380.488281 387.359375 378.863281 388.023438 377.261719 C 388.683594 375.664062 389.421875 374.101562 390.238281 372.574219 C 391.054688 371.050781 391.941406 369.566406 392.902344 368.128906 C 393.867188 366.691406 394.894531 365.300781 395.992188 363.964844 C 397.089844 362.625 398.25 361.347656 399.476562 360.121094 C 400.699219 358.898438 401.980469 357.738281 403.316406 356.640625 C 404.652344 355.542969 406.042969 354.511719 407.480469 353.550781 C 408.917969 352.589844 410.402344 351.703125 411.929688 350.886719 C 413.453125 350.070312 415.015625 349.332031 416.617188 348.667969 C 418.214844 348.007812 419.839844 347.425781 421.496094 346.921875 C 423.152344 346.421875 424.828125 346 426.527344 345.664062 C 428.222656 345.324219 429.933594 345.070312 431.65625 344.902344 C 433.378906 344.734375 435.105469 344.648438 436.832031 344.648438 C 438.5625 344.648438 440.289062 344.734375 442.011719 344.902344 C 443.734375 345.070312 445.445312 345.324219 447.140625 345.664062 C 448.839844 346 450.515625 346.421875 452.171875 346.921875 C 453.828125 347.425781 455.453125 348.007812 457.050781 348.667969 C 458.652344 349.332031 460.214844 350.070312 461.738281 350.886719 C 463.265625 351.703125 464.75 352.589844 466.1875 353.550781 C 467.625 354.511719 469.015625 355.542969 470.351562 356.640625 C 471.6875 357.738281 472.96875 358.898438 474.191406 360.121094 C 475.417969 361.347656 476.578125 362.625 477.675781 363.964844 C 478.773438 365.300781 479.800781 366.691406 480.765625 368.128906 C 481.726562 369.566406 482.613281 371.050781 483.429688 372.574219 C 484.246094 374.101562 484.984375 375.664062 485.644531 377.261719 C 486.308594 378.863281 486.890625 380.488281 487.394531 382.144531 C 487.894531 383.800781 488.316406 385.476562 488.652344 387.175781 C 488.992188 388.871094 489.242188 390.582031 489.414062 392.304688 C 489.582031 394.023438 489.667969 395.75 489.667969 397.480469 Z M 489.667969 397.480469 " fill-opacity="1" fill-rule="nonzero"/></g></svg>