<svg xmlns="http://www.w3.org/2000/svg" xmlns:xlink="http://www.w3.org/1999/xlink" width="1024" zoomAndPan="magnify" viewBox="0 0 768 767.999994" height="1024" preserveAspectRatio="xMidYMid meet" version="1.0"><defs><clipPath id="07fc79567c"><path d="M 249.441406 662.796875 L 306.441406 662.796875 L 306.441406 719.796875 L 249.441406 719.796875 Z M 249.441406 662.796875 " clip-rule="nonzero"/></clipPath></defs><path fill="#f7d7b7" d="M 562.605469 148.628906 C 562.605469 150.363281 562.539062 152.09375 562.40625 153.828125 C 562.273438 155.558594 562.074219 157.285156 561.808594 159.011719 C 561.546875 160.734375 561.214844 162.457031 560.816406 164.171875 C 560.421875 165.886719 559.957031 167.59375 559.429688 169.292969 C 558.902344 170.992188 558.308594 172.683594 557.652344 174.367188 C 556.996094 176.046875 556.273438 177.71875 555.488281 179.375 C 554.703125 181.035156 553.855469 182.679688 552.941406 184.3125 C 552.03125 185.945312 551.058594 187.5625 550.023438 189.164062 C 548.984375 190.765625 547.890625 192.347656 546.734375 193.914062 C 545.578125 195.484375 544.359375 197.03125 543.085938 198.558594 C 541.808594 200.089844 540.476562 201.597656 539.085938 203.082031 C 537.695312 204.570312 536.246094 206.035156 534.742188 207.476562 C 533.238281 208.917969 531.683594 210.332031 530.070312 211.726562 C 528.460938 213.117188 526.796875 214.484375 525.078125 215.824219 C 523.363281 217.164062 521.59375 218.476562 519.777344 219.761719 C 517.960938 221.042969 516.097656 222.300781 514.183594 223.527344 C 512.269531 224.75 510.308594 225.945312 508.304688 227.109375 C 506.300781 228.273438 504.253906 229.40625 502.160156 230.507812 C 500.070312 231.605469 497.9375 232.671875 495.765625 233.703125 C 493.589844 234.738281 491.378906 235.734375 489.128906 236.699219 C 486.878906 237.660156 484.59375 238.589844 482.273438 239.480469 C 479.953125 240.371094 477.597656 241.226562 475.210938 242.042969 C 472.828125 242.859375 470.410156 243.636719 467.964844 244.378906 C 465.519531 245.121094 463.046875 245.824219 460.546875 246.484375 C 458.046875 247.148438 455.523438 247.773438 452.976562 248.355469 C 450.425781 248.941406 447.859375 249.484375 445.269531 249.988281 C 442.679688 250.492188 440.074219 250.953125 437.449219 251.375 C 434.824219 251.796875 432.183594 252.175781 429.53125 252.515625 C 426.878906 252.851562 424.210938 253.148438 421.535156 253.402344 C 418.859375 253.65625 416.175781 253.867188 413.480469 254.039062 C 410.789062 254.207031 408.09375 254.335938 405.390625 254.421875 C 402.6875 254.507812 399.984375 254.550781 397.277344 254.550781 C 394.570312 254.550781 391.867188 254.507812 389.164062 254.421875 C 386.460938 254.335938 383.765625 254.207031 381.070312 254.039062 C 378.378906 253.867188 375.695312 253.65625 373.019531 253.402344 C 370.34375 253.148438 367.675781 252.851562 365.023438 252.515625 C 362.371094 252.175781 359.730469 251.796875 357.105469 251.375 C 354.480469 250.953125 351.875 250.492188 349.285156 249.988281 C 346.695312 249.484375 344.128906 248.941406 341.578125 248.355469 C 339.03125 247.773438 336.507812 247.148438 334.007812 246.484375 C 331.507812 245.824219 329.035156 245.121094 326.589844 244.378906 C 324.144531 243.636719 321.726562 242.859375 319.339844 242.042969 C 316.957031 241.226562 314.601562 240.371094 312.28125 239.480469 C 309.960938 238.589844 307.675781 237.660156 305.425781 236.699219 C 303.175781 235.734375 300.964844 234.738281 298.789062 233.703125 C 296.617188 232.671875 294.484375 231.605469 292.394531 230.507812 C 290.300781 229.40625 288.253906 228.273438 286.25 227.109375 C 284.242188 225.945312 282.285156 224.75 280.371094 223.527344 C 278.457031 222.300781 276.59375 221.042969 274.777344 219.761719 C 272.960938 218.476562 271.191406 217.164062 269.476562 215.824219 C 267.757812 214.484375 266.09375 213.117188 264.484375 211.726562 C 262.871094 210.332031 261.3125 208.917969 259.8125 207.476562 C 258.308594 206.035156 256.859375 204.570312 255.46875 203.082031 C 254.078125 201.597656 252.746094 200.089844 251.46875 198.558594 C 250.195312 197.03125 248.976562 195.484375 247.820312 193.914062 C 246.664062 192.347656 245.566406 190.765625 244.53125 189.164062 C 243.496094 187.5625 242.523438 185.945312 241.613281 184.3125 C 240.699219 182.679688 239.851562 181.035156 239.066406 179.375 C 238.28125 177.71875 237.558594 176.046875 236.902344 174.367188 C 236.246094 172.683594 235.652344 170.992188 235.125 169.292969 C 234.597656 167.59375 234.132812 165.886719 233.738281 164.171875 C 233.339844 162.457031 233.007812 160.734375 232.742188 159.011719 C 232.480469 157.285156 232.28125 155.558594 232.148438 153.828125 C 232.015625 152.09375 231.949219 150.363281 231.949219 148.628906 C 231.949219 146.894531 232.015625 145.164062 232.148438 143.433594 C 232.28125 141.699219 232.480469 139.972656 232.742188 138.246094 C 233.007812 136.523438 233.339844 134.800781 233.738281 133.085938 C 234.132812 131.371094 234.597656 129.664062 235.125 127.964844 C 235.652344 126.265625 236.246094 124.574219 236.902344 122.894531 C 237.558594 121.210938 238.28125 119.542969 239.066406 117.882812 C 239.851562 116.222656 240.699219 114.578125 241.613281 112.945312 C 242.523438 111.3125 243.496094 109.695312 244.53125 108.09375 C 245.566406 106.492188 246.664062 104.910156 247.820312 103.34375 C 248.976562 101.777344 250.195312 100.226562 251.46875 98.699219 C 252.746094 97.171875 254.078125 95.664062 255.46875 94.175781 C 256.859375 92.6875 258.308594 91.226562 259.8125 89.785156 C 261.3125 88.34375 262.871094 86.925781 264.484375 85.53125 C 266.09375 84.140625 267.757812 82.773438 269.476562 81.433594 C 271.191406 80.09375 272.960938 78.78125 274.777344 77.496094 C 276.59375 76.214844 278.457031 74.957031 280.371094 73.734375 C 282.285156 72.507812 284.242188 71.3125 286.25 70.148438 C 288.253906 68.984375 290.300781 67.851562 292.394531 66.753906 C 294.484375 65.652344 296.617188 64.585938 298.789062 63.554688 C 300.964844 62.519531 303.175781 61.523438 305.425781 60.558594 C 307.675781 59.597656 309.960938 58.671875 312.28125 57.777344 C 314.601562 56.886719 316.957031 56.035156 319.339844 55.214844 C 321.726562 54.398438 324.144531 53.621094 326.589844 52.878906 C 329.035156 52.136719 331.507812 51.433594 334.007812 50.773438 C 336.507812 50.109375 339.03125 49.484375 341.578125 48.902344 C 344.128906 48.316406 346.695312 47.773438 349.285156 47.269531 C 351.875 46.765625 354.480469 46.304688 357.105469 45.882812 C 359.730469 45.460938 362.371094 45.082031 365.023438 44.746094 C 367.675781 44.40625 370.34375 44.109375 373.019531 43.855469 C 375.695312 43.601562 378.378906 43.390625 381.070312 43.21875 C 383.765625 43.050781 386.460938 42.921875 389.164062 42.835938 C 391.867188 42.753906 394.570312 42.710938 397.277344 42.710938 C 399.984375 42.710938 402.6875 42.753906 405.390625 42.835938 C 408.09375 42.921875 410.789062 43.050781 413.480469 43.21875 C 416.175781 43.390625 418.859375 43.601562 421.535156 43.855469 C 424.210938 44.109375 426.878906 44.40625 429.53125 44.746094 C 432.183594 45.082031 434.824219 45.460938 437.449219 45.882812 C 440.074219 46.304688 442.679688 46.765625 445.269531 47.269531 C 447.859375 47.773438 450.425781 48.316406 452.976562 48.902344 C 455.523438 49.484375 458.046875 50.109375 460.546875 50.773438 C 463.046875 51.433594 465.519531 52.136719 467.964844 52.878906 C 470.410156 53.621094 472.828125 54.398438 475.210938 55.214844 C 477.597656 56.035156 479.953125 56.886719 482.273438 57.777344 C 484.59375 58.671875 486.878906 59.597656 489.128906 60.558594 C 491.378906 61.523438 493.589844 62.519531 495.765625 63.554688 C 497.9375 64.585938 500.070312 65.652344 502.160156 66.753906 C 504.253906 67.851562 506.300781 68.984375 508.304688 70.148438 C 510.308594 71.3125 512.269531 72.507812 514.183594 73.734375 C 516.097656 74.957031 517.960938 76.214844 519.777344 77.496094 C 521.59375 78.78125 523.363281 80.09375 525.078125 81.433594 C 526.792969 82.773438 528.460938 84.140625 530.070312 85.53125 C 531.683594 86.925781 533.238281 88.34375 534.742188 89.785156 C 536.246094 91.226562 537.695312 92.6875 539.085938 94.175781 C 540.476562 95.664062 541.808594 97.171875 543.085938 98.699219 C 544.359375 100.226562 545.578125 101.777344 546.734375 103.34375 C 547.890625 104.910156 548.984375 106.492188 550.019531 108.09375 C 551.058594 109.695312 552.03125 111.3125 552.941406 112.945312 C 553.851562 114.578125 554.703125 116.222656 555.488281 117.882812 C 556.273438 119.542969 556.996094 121.210938 557.652344 122.894531 C 558.308594 124.574219 558.902344 126.265625 559.429688 127.964844 C 559.957031 129.664062 560.421875 131.371094 560.816406 133.085938 C 561.214844 134.800781 561.546875 136.523438 561.808594 138.246094 C 562.074219 139.972656 562.273438 141.699219 562.40625 143.433594 C 562.539062 145.164062 562.605469 146.894531 562.605469 148.628906 Z M 562.605469 148.628906 " fill-opacity="1" fill-rule="nonzero"/><path fill="#f7d7b7" d="M 306.652344 74.835938 C 308.71875 55.578125 326.5 17.0625 346.765625 10.160156 C 367.03125 3.253906 434.027344 -0.015625 450.570312 12.703125 C 467.113281 25.421875 484.484375 78.472656 484.484375 78.472656 Z M 306.652344 74.835938 " fill-opacity="1" fill-rule="nonzero"/><path fill="#662520" d="M 377.292969 60.878906 C 377.292969 60.878906 322.789062 65.601562 303.894531 91.035156 C 285 116.472656 299.167969 170.976562 296.261719 176.0625 C 293.355469 181.148438 285.726562 194.230469 285.363281 213.125 C 285 232.019531 276.277344 249.824219 267.921875 258.910156 C 259.5625 267.992188 234.492188 326.859375 308.980469 334.488281 C 383.46875 342.117188 509.015625 350.839844 528 334.488281 C 546.984375 318.136719 541.167969 275.261719 525.179688 270.171875 C 509.191406 265.085938 508.101562 236.015625 515.734375 221.847656 C 523.363281 207.675781 493.929688 176.789062 493.929688 176.789062 C 493.929688 176.789062 501.5625 160.074219 499.019531 134.277344 C 496.476562 108.476562 486.300781 81.226562 474.308594 73.59375 C 462.320312 65.964844 427.800781 57.96875 388.917969 59.425781 L 387.464844 78.320312 Z M 377.292969 60.878906 " fill-opacity="1" fill-rule="nonzero"/><path fill="#ff7126" d="M 328.964844 304.328125 C 328.964844 304.328125 252.660156 321.042969 231.949219 353.382812 C 211.238281 385.722656 185.4375 502.359375 185.4375 502.359375 L 126.9375 571.398438 L 105.136719 579.03125 C 105.136719 579.03125 96.050781 620.816406 132.75 643.707031 C 169.449219 666.601562 201.789062 656.425781 212.328125 632.445312 C 221.773438 632.082031 234.128906 599.378906 234.128906 599.378906 L 287.542969 599.015625 L 542.984375 576.125 L 553.886719 592.113281 C 553.886719 592.113281 554.25 617.546875 567.332031 624.8125 C 580.410156 632.082031 596.398438 660.421875 596.398438 660.421875 C 596.398438 660.421875 605.121094 682.226562 612.75 679.679688 C 620.382812 677.136719 618.5625 662.96875 618.5625 662.96875 C 618.5625 662.96875 671.976562 669.871094 663.984375 589.929688 C 655.992188 509.992188 585.5 358.46875 558.246094 338.847656 C 530.992188 319.226562 482.304688 305.78125 482.304688 305.78125 L 408.90625 337.757812 Z M 328.964844 304.328125 " fill-opacity="1" fill-rule="nonzero"/><path fill="#662520" d="M 541.414062 559.261719 C 541.230469 559.261719 541.042969 559.226562 540.863281 559.160156 C 540.011719 558.855469 539.574219 557.917969 539.878906 557.070312 C 547.652344 535.472656 549.320312 511.804688 550.933594 488.914062 C 552.796875 462.566406 554.71875 435.320312 565.9375 411.019531 C 566.316406 410.199219 567.285156 409.84375 568.109375 410.21875 C 568.929688 410.597656 569.285156 411.570312 568.90625 412.390625 C 557.9375 436.148438 556.035156 463.089844 554.199219 489.140625 C 552.566406 512.253906 550.878906 536.152344 542.957031 558.171875 C 542.714844 558.839844 542.085938 559.257812 541.417969 559.257812 Z M 541.414062 559.261719 " fill-opacity="1" fill-rule="nonzero"/><path fill="#f49f83" d="M 366.390625 235.652344 C 366.753906 253.457031 363.484375 293.792969 363.484375 293.792969 L 328.964844 304.328125 C 328.964844 304.328125 358.398438 379.546875 404.179688 379.183594 C 449.964844 378.820312 482.304688 305.78125 482.304688 305.78125 L 447.421875 296.699219 L 441.242188 232.382812 Z M 366.390625 235.652344 " fill-opacity="1" fill-rule="nonzero"/><path fill="#662520" d="M 253.859375 471.585938 C 253.085938 471.585938 252.394531 471.03125 252.253906 470.238281 C 248.769531 451.019531 243.84375 431.882812 237.628906 413.363281 C 237.339844 412.503906 237.800781 411.578125 238.65625 411.292969 C 239.507812 411.003906 240.441406 411.464844 240.726562 412.320312 C 246.996094 430.988281 251.957031 450.277344 255.472656 469.65625 C 255.632812 470.546875 255.042969 471.394531 254.15625 471.554688 C 254.058594 471.574219 253.960938 471.582031 253.863281 471.582031 Z M 253.859375 471.585938 " fill-opacity="1" fill-rule="nonzero"/><path fill="#f49f83" d="M 320.246094 197.136719 C 320.972656 233.109375 353.308594 254.914062 407.089844 254.550781 C 460.867188 254.1875 473.21875 221.121094 477.214844 198.953125 C 508.828125 203.679688 521.183594 133.914062 490.296875 150.628906 C 475.035156 147.359375 480.851562 114.292969 462.320312 107.386719 C 443.789062 100.484375 399.457031 77.957031 388.917969 59.425781 L 377.292969 60.878906 C 377.292969 60.878906 372.933594 73.59375 360.578125 79.410156 C 348.222656 85.222656 334.050781 129.554688 314.429688 150.628906 C 287.179688 139.726562 280.273438 202.953125 320.246094 197.136719 Z M 320.246094 197.136719 " fill-opacity="1" fill-rule="nonzero"/><path fill="#f7d7b7" d="M 285.726562 314.503906 L 285.726562 484.554688 C 285.726562 484.554688 248.664062 565.949219 248.664062 565.949219 C 248.664062 565.949219 222.863281 702.210938 221.410156 720.378906 C 219.957031 738.546875 297.714844 767.976562 411.085938 762.890625 C 524.453125 757.804688 562.605469 728.007812 562.605469 728.007812 L 541.894531 550.324219 L 500.109375 476.199219 L 514.28125 312.324219 L 489.519531 304.328125 L 457.230469 471.476562 L 339.503906 469.296875 L 317.699219 300.695312 Z M 285.726562 314.503906 " fill-opacity="1" fill-rule="nonzero"/><path fill="#0f844f" d="M 301.328125 517.671875 C 306.523438 538.6875 275.050781 545.941406 269.273438 538.476562 C 250.628906 549.390625 244.191406 530.875 248.203125 523.78125 C 252.214844 516.6875 246.421875 523.984375 246.421875 523.984375 C 226.867188 523.234375 242.605469 507.519531 242.605469 507.519531 C 233.546875 495.722656 248.144531 494.261719 248.144531 494.261719 C 232.855469 480.398438 249.527344 469.070312 249.527344 469.070312 C 247.335938 448.140625 266.03125 450.699219 266.03125 450.699219 C 267.535156 432.125 291.121094 427.378906 291.121094 427.378906 C 293.179688 411.417969 308.6875 414.128906 314.910156 421.761719 C 324.976562 401.347656 352.320312 419.601562 352.320312 419.601562 C 365.964844 409.902344 375.324219 426.15625 374.09375 435.929688 C 399.597656 432.570312 395.113281 456.835938 395.113281 456.835938 C 422.066406 458.660156 413.488281 480.828125 409.582031 484.058594 C 431.074219 499.773438 419.207031 515.6875 408.746094 517.746094 C 414.332031 531.011719 396.375 536.714844 389.96875 531.246094 C 393.453125 546.675781 359.332031 555.09375 352.128906 537.089844 C 335.273438 548.65625 301.328125 517.679688 301.328125 517.679688 Z M 301.328125 517.671875 " fill-opacity="1" fill-rule="nonzero"/><path fill="#0f844f" d="M 279.941406 510.289062 C 287.242188 516.085938 306.375 529.933594 308.640625 545.933594 C 310.910156 561.933594 314.722656 594.792969 314.722656 594.792969 C 314.722656 594.792969 324.246094 599.476562 338.769531 597.378906 C 353.292969 595.285156 359.109375 588.195312 359.109375 588.195312 C 359.109375 588.195312 351.148438 537.835938 359.660156 522.523438 C 368.167969 507.210938 374.1875 498.175781 374.1875 498.175781 L 364.082031 488.425781 C 364.082031 488.425781 344.863281 514.8125 342.183594 521.324219 C 339.511719 527.835938 332.75 528.613281 333.308594 520.421875 C 333.863281 512.226562 337.421875 478.011719 337.421875 478.011719 L 322.046875 478.28125 C 322.046875 478.28125 318.234375 500.972656 315.007812 510.117188 C 311.78125 519.257812 303.902344 508.398438 301.472656 505.894531 C 299.046875 503.390625 293.015625 497.453125 293.015625 497.453125 L 279.941406 510.292969 Z M 279.941406 510.289062 " fill-opacity="1" fill-rule="nonzero"/><path fill="#662520" d="M 311.3125 515.347656 C 307.609375 515.347656 303.914062 511.128906 301.40625 508.261719 C 300.964844 507.753906 300.578125 507.3125 300.300781 507.027344 C 297.914062 504.566406 291.929688 498.667969 291.867188 498.609375 C 291.222656 497.980469 291.214844 496.945312 291.847656 496.300781 C 292.480469 495.65625 293.515625 495.648438 294.160156 496.28125 C 294.222656 496.339844 300.230469 502.261719 302.644531 504.753906 C 302.980469 505.097656 303.386719 505.566406 303.863281 506.109375 C 305.527344 508.007812 309.429688 512.46875 311.582031 512.050781 C 312.476562 511.882812 313.101562 510.605469 313.46875 509.566406 C 316.609375 500.660156 320.398438 478.230469 320.4375 478.003906 C 320.585938 477.113281 321.4375 476.515625 322.320312 476.664062 C 323.210938 476.8125 323.808594 477.65625 323.660156 478.546875 C 323.503906 479.480469 319.785156 501.480469 316.550781 510.652344 C 315.601562 513.339844 314.136719 514.890625 312.199219 515.261719 C 311.90625 515.320312 311.609375 515.34375 311.3125 515.34375 Z M 311.3125 515.347656 " fill-opacity="1" fill-rule="nonzero"/><path fill="#662520" d="M 336.566406 528.023438 C 336.21875 528.023438 335.871094 527.980469 335.53125 527.90625 C 332.839844 527.277344 331.398438 524.4375 331.679688 520.308594 C 332.230469 512.179688 335.761719 478.183594 335.796875 477.839844 C 335.890625 476.941406 336.703125 476.289062 337.589844 476.382812 C 338.488281 476.476562 339.144531 477.277344 339.046875 478.175781 C 339.011719 478.515625 335.488281 512.457031 334.941406 520.527344 C 334.785156 522.847656 335.304688 524.488281 336.273438 524.714844 C 337.28125 524.953125 339.382812 523.839844 340.671875 520.699219 C 343.390625 514.078125 361.96875 488.542969 362.757812 487.460938 C 363.289062 486.730469 364.3125 486.570312 365.042969 487.101562 C 365.773438 487.628906 365.933594 488.65625 365.402344 489.386719 C 365.210938 489.648438 346.269531 515.6875 343.699219 521.941406 C 342.183594 525.628906 339.308594 528.023438 336.566406 528.023438 Z M 336.566406 528.023438 " fill-opacity="1" fill-rule="nonzero"/><path fill="#662520" d="M 331.285156 599.558594 C 320.851562 599.558594 314.328125 596.425781 314 596.265625 C 313.5 596.019531 313.160156 595.539062 313.097656 594.984375 C 313.058594 594.660156 309.261719 561.960938 307.023438 546.164062 C 305.011719 531.980469 288.589844 519.136719 280.699219 512.96875 C 280.054688 512.460938 279.457031 511.992188 278.921875 511.574219 C 278.214844 511.007812 278.097656 509.980469 278.65625 509.277344 C 279.21875 508.570312 280.25 508.453125 280.953125 509.011719 C 281.480469 509.429688 282.070312 509.890625 282.714844 510.390625 C 290.941406 516.828125 308.066406 530.214844 310.257812 545.707031 C 312.289062 560.03125 315.59375 588.175781 316.234375 593.671875 C 317.230469 594.066406 319.132812 594.742188 321.765625 595.304688 C 325.441406 596.089844 331.332031 596.800781 338.53125 595.761719 C 345.660156 594.734375 350.535156 592.445312 353.363281 590.707031 C 355.417969 589.453125 356.726562 588.289062 357.371094 587.65625 C 356.347656 580.90625 350.035156 536.46875 358.226562 521.730469 C 366.671875 506.535156 372.769531 497.363281 372.828125 497.269531 C 373.328125 496.519531 374.34375 496.316406 375.09375 496.816406 C 375.847656 497.316406 376.050781 498.332031 375.546875 499.082031 C 375.488281 499.175781 369.457031 508.25 361.082031 523.324219 C 352.945312 537.96875 360.644531 587.445312 360.71875 587.945312 C 360.792969 588.40625 360.664062 588.875 360.367188 589.238281 C 360.113281 589.546875 353.976562 596.839844 338.996094 599.003906 C 336.238281 599.402344 333.65625 599.5625 331.28125 599.5625 Z M 331.285156 599.558594 " fill-opacity="1" fill-rule="nonzero"/><path fill="#662520" d="M 283.339844 468.835938 C 283.011719 468.835938 282.675781 468.734375 282.386719 468.527344 C 281.652344 468 281.488281 466.976562 282.015625 466.246094 C 284.375 462.980469 288.75 461.515625 292.605469 462.429688 C 292.699219 460.792969 292.863281 459.136719 293.257812 457.484375 C 293.945312 454.636719 295.265625 452.285156 297.085938 450.683594 C 299.371094 448.667969 302.433594 447.910156 305.070312 448.71875 C 307.21875 449.371094 309.089844 451.03125 310.34375 453.398438 C 310.96875 454.574219 311.398438 455.832031 311.734375 457.0625 C 313.023438 456.429688 314.484375 456.152344 315.914062 456.300781 C 318.253906 456.550781 320.453125 457.964844 321.652344 459.992188 C 322.113281 460.769531 321.855469 461.773438 321.078125 462.230469 C 320.304688 462.691406 319.296875 462.433594 318.839844 461.65625 C 318.15625 460.503906 316.902344 459.695312 315.566406 459.554688 C 314.230469 459.410156 312.839844 459.929688 311.925781 460.917969 C 311.515625 461.359375 310.890625 461.542969 310.308594 461.386719 C 309.722656 461.230469 309.269531 460.761719 309.136719 460.171875 C 308.722656 458.371094 308.296875 456.503906 307.460938 454.933594 C 306.628906 453.367188 305.414062 452.242188 304.125 451.851562 C 302.585938 451.382812 300.675781 451.886719 299.253906 453.140625 C 297.597656 454.601562 296.8125 456.726562 296.441406 458.257812 C 295.9375 460.347656 295.859375 462.613281 295.785156 464.808594 C 295.769531 465.375 295.457031 465.890625 294.964844 466.175781 C 294.472656 466.457031 293.867188 466.460938 293.371094 466.1875 C 290.539062 464.644531 286.558594 465.550781 284.667969 468.164062 C 284.347656 468.609375 283.847656 468.84375 283.339844 468.84375 Z M 283.339844 468.835938 " fill-opacity="1" fill-rule="nonzero"/><path fill="#662520" d="M 366.703125 452.726562 C 365.929688 452.726562 365.238281 452.171875 365.097656 451.382812 C 364.824219 449.875 363.984375 448.457031 362.789062 447.492188 C 361.597656 446.53125 360.035156 446.007812 358.503906 446.058594 C 357.601562 446.082031 356.847656 445.382812 356.8125 444.476562 C 356.78125 443.574219 357.488281 442.820312 358.394531 442.789062 C 360.695312 442.714844 363.046875 443.496094 364.84375 444.945312 C 366.636719 446.394531 367.902344 448.527344 368.3125 450.796875 C 368.472656 451.6875 367.886719 452.539062 366.996094 452.695312 C 366.898438 452.714844 366.796875 452.722656 366.699219 452.722656 Z M 366.703125 452.726562 " fill-opacity="1" fill-rule="nonzero"/><path fill="#0f844f" d="M 407.609375 528.070312 C 404.492188 545.242188 378.949219 540.183594 377.164062 532.78125 C 359.847656 534.652344 361.230469 518.910156 366.523438 515.015625 C 371.816406 511.125 365.140625 514.578125 365.140625 514.578125 C 351.007812 507.570312 367.773438 501.210938 367.773438 501.210938 C 365.003906 489.542969 376.222656 493.285156 376.222656 493.285156 C 369.554688 478.042969 385.558594 475.210938 385.558594 475.210938 C 390.855469 459.09375 403.761719 467.148438 403.761719 467.148438 C 411 453.984375 429.917969 458.28125 429.917969 458.28125 C 436.707031 447.226562 447.210938 454.339844 449.269531 462.007812 C 463.414062 450.316406 477.496094 472.769531 477.496094 472.769531 C 490.738281 470.140625 492.253906 485.1875 488.121094 491.964844 C 507.984375 497.917969 496.675781 514.28125 496.675781 514.28125 C 515.894531 524.527344 502.265625 537.996094 498.328125 539.082031 C 508.945312 557.738281 494.964844 565.523438 486.589844 563.582031 C 486.324219 575.1875 471.230469 573.449219 468.324219 567.3125 C 465.792969 579.8125 437.914062 574.734375 438.5625 559.117188 C 422.34375 562.058594 407.609375 528.070312 407.609375 528.070312 Z M 407.609375 528.070312 " fill-opacity="1" fill-rule="nonzero"/><path fill="#0f844f" d="M 394.320312 515.578125 C 397.773438 522.246094 407.277344 538.75 403.660156 551.269531 C 400.046875 563.789062 391.996094 589.214844 391.996094 589.214844 C 391.996094 589.214844 397.457031 595.804688 408.828125 599.058594 C 420.203125 602.3125 426.820312 599.019531 426.820312 599.019531 C 426.820312 599.019531 437.59375 559.351562 448.910156 550.898438 C 460.226562 542.445312 467.636719 537.789062 467.636719 537.789062 L 463.421875 527.28125 C 463.421875 527.28125 440.574219 540.339844 436.457031 544.25 C 432.339844 548.15625 427.113281 546.496094 430.230469 540.652344 C 433.347656 534.808594 447.257812 510.820312 447.257812 510.820312 L 435.863281 505.941406 C 435.863281 505.941406 425.570312 521.367188 420.171875 527.03125 C 414.78125 532.6875 412.566406 522.097656 411.613281 519.453125 C 410.652344 516.8125 408.179688 510.449219 408.179688 510.449219 L 394.324219 515.578125 Z M 394.320312 515.578125 " fill-opacity="1" fill-rule="nonzero"/><path fill="#662520" d="M 417.246094 530.304688 C 416.941406 530.304688 416.636719 530.265625 416.332031 530.195312 C 412.964844 529.398438 411.464844 524.503906 410.472656 521.265625 C 410.316406 520.75 410.179688 520.304688 410.070312 520.007812 C 409.128906 517.414062 406.671875 511.105469 406.652344 511.042969 C 406.324219 510.199219 406.742188 509.253906 407.582031 508.921875 C 408.425781 508.597656 409.371094 509.015625 409.699219 509.855469 C 409.800781 510.117188 412.191406 516.261719 413.148438 518.890625 C 413.285156 519.265625 413.433594 519.75 413.601562 520.308594 C 414.132812 522.039062 415.542969 526.648438 417.085938 527.011719 C 417.519531 527.113281 418.214844 526.707031 418.988281 525.894531 C 424.21875 520.40625 434.398438 505.179688 434.5 505.027344 C 435 504.277344 436.015625 504.078125 436.765625 504.574219 C 437.519531 505.074219 437.71875 506.089844 437.222656 506.839844 C 436.796875 507.476562 426.785156 522.457031 421.355469 528.152344 C 419.996094 529.582031 418.617188 530.304688 417.246094 530.304688 Z M 417.246094 530.304688 " fill-opacity="1" fill-rule="nonzero"/><path fill="#662520" d="M 431.917969 547.996094 C 430.898438 547.996094 429.957031 547.714844 429.203125 547.140625 C 428.484375 546.597656 426.347656 544.46875 428.792969 539.882812 C 431.882812 534.078125 445.28125 510.976562 445.847656 509.996094 C 446.300781 509.214844 447.300781 508.949219 448.082031 509.402344 C 448.863281 509.855469 449.128906 510.855469 448.675781 511.636719 C 448.535156 511.878906 434.738281 535.671875 431.671875 541.417969 C 430.761719 543.125 430.777344 544.234375 431.183594 544.539062 C 431.769531 544.988281 433.589844 544.71875 435.335938 543.0625 C 439.546875 539.0625 461.675781 526.398438 462.617188 525.859375 C 463.402344 525.414062 464.402344 525.683594 464.847656 526.464844 C 465.292969 527.25 465.023438 528.25 464.242188 528.699219 C 456.394531 533.179688 440.730469 542.449219 437.589844 545.429688 C 435.828125 547.101562 433.746094 547.996094 431.921875 547.996094 Z M 431.917969 547.996094 " fill-opacity="1" fill-rule="nonzero"/><path fill="#662520" d="M 418.488281 602.128906 C 415.691406 602.128906 412.300781 601.75 408.382812 600.628906 C 396.65625 597.273438 390.976562 590.542969 390.742188 590.257812 C 390.382812 589.828125 390.273438 589.25 390.4375 588.722656 C 390.519531 588.46875 398.519531 563.167969 402.089844 550.816406 C 405.265625 539.84375 397.464844 525.054688 393.714844 517.945312 C 393.40625 517.355469 393.121094 516.820312 392.871094 516.328125 C 392.457031 515.527344 392.769531 514.542969 393.570312 514.125 C 394.375 513.710938 395.359375 514.023438 395.777344 514.824219 C 396.027344 515.308594 396.308594 515.839844 396.613281 516.417969 C 400.558594 523.90625 408.769531 539.480469 405.234375 551.722656 C 402.039062 562.78125 395.320312 584.136719 393.847656 588.796875 C 395.492188 590.453125 400.605469 595.003906 409.28125 597.484375 C 414.792969 599.0625 419.074219 598.992188 421.699219 598.664062 C 423.484375 598.433594 424.761719 598.054688 425.464844 597.804688 C 426.195312 595.234375 428.667969 586.710938 432.09375 577.554688 C 437.65625 562.695312 442.984375 553.285156 447.933594 549.585938 C 459.171875 541.195312 466.699219 536.449219 466.769531 536.402344 C 467.53125 535.921875 468.542969 536.148438 469.023438 536.917969 C 469.503906 537.679688 469.273438 538.691406 468.507812 539.167969 C 468.433594 539.21875 461.011719 543.898438 449.886719 552.207031 C 445.515625 555.472656 440.421875 564.625 435.160156 578.679688 C 431.125 589.457031 428.425781 599.347656 428.398438 599.449219 C 428.277344 599.898438 427.964844 600.277344 427.546875 600.484375 C 427.351562 600.582031 424.140625 602.128906 418.488281 602.128906 Z M 418.488281 602.128906 " fill-opacity="1" fill-rule="nonzero"/><path fill="#662520" d="M 440.296875 494.140625 C 439.472656 494.140625 438.765625 493.523438 438.671875 492.6875 C 438.5625 491.726562 437.953125 490.789062 437.117188 490.300781 C 436.28125 489.8125 435.160156 489.742188 434.269531 490.121094 C 433.710938 490.355469 433.070312 490.265625 432.597656 489.882812 C 432.128906 489.5 431.910156 488.890625 432.027344 488.296875 C 432.316406 486.851562 432.613281 485.359375 432.523438 483.972656 C 432.4375 482.628906 431.949219 481.484375 431.191406 480.820312 C 430.300781 480.039062 428.84375 479.804688 427.488281 480.226562 C 425.867188 480.726562 424.632812 481.984375 423.886719 482.949219 C 422.84375 484.296875 422.046875 485.925781 421.277344 487.5 C 421.027344 488.007812 420.53125 488.355469 419.96875 488.40625 C 419.40625 488.460938 418.851562 488.222656 418.507812 487.769531 C 417.03125 485.820312 413.988281 485.207031 411.867188 486.429688 C 411.085938 486.882812 410.082031 486.617188 409.632812 485.832031 C 409.179688 485.050781 409.445312 484.050781 410.230469 483.597656 C 413.042969 481.972656 416.707031 482.261719 419.328125 484.085938 C 419.894531 483.011719 420.523438 481.949219 421.300781 480.945312 C 422.789062 479.027344 424.59375 477.695312 426.519531 477.097656 C 428.972656 476.335938 431.589844 476.816406 433.347656 478.355469 C 434.777344 479.601562 435.640625 481.519531 435.789062 483.753906 C 435.855469 484.722656 435.78125 485.6875 435.65625 486.609375 C 436.746094 486.636719 437.832031 486.925781 438.769531 487.472656 C 440.492188 488.480469 441.703125 490.335938 441.921875 492.320312 C 442.023438 493.21875 441.378906 494.027344 440.480469 494.132812 C 440.417969 494.136719 440.355469 494.140625 440.296875 494.140625 Z M 440.296875 494.140625 " fill-opacity="1" fill-rule="nonzero"/><path fill="#662520" d="M 477.683594 502.320312 C 477.550781 502.320312 477.421875 502.308594 477.285156 502.273438 C 476.410156 502.054688 475.875 501.167969 476.089844 500.292969 C 476.371094 499.167969 476.226562 497.929688 475.703125 496.894531 C 475.175781 495.855469 474.257812 495.011719 473.183594 494.570312 C 472.347656 494.230469 471.949219 493.273438 472.289062 492.4375 C 472.632812 491.601562 473.585938 491.203125 474.421875 491.542969 C 476.214844 492.277344 477.738281 493.6875 478.617188 495.410156 C 479.492188 497.136719 479.726562 499.199219 479.261719 501.078125 C 479.078125 501.824219 478.414062 502.320312 477.679688 502.320312 Z M 477.683594 502.320312 " fill-opacity="1" fill-rule="nonzero"/><path fill="#ff7126" d="M 383.765625 560.488281 C 333.191406 560.488281 292.195312 559.832031 292.195312 571.570312 C 292.195312 571.8125 292.222656 572.058594 292.253906 572.300781 C 296.355469 622.203125 312.890625 690.742188 383.765625 690.742188 C 454.636719 690.742188 475.332031 633.523438 475.332031 571.570312 C 475.332031 559.832031 434.335938 560.488281 383.765625 560.488281 Z M 383.765625 560.488281 " fill-opacity="1" fill-rule="nonzero"/><path fill="#f49f83" d="M 562.605469 594.042969 C 544.734375 600.882812 460.136719 630.996094 460.136719 630.996094 C 460.136719 630.996094 411.8125 606.648438 403.453125 603.378906 C 395.097656 600.109375 377.65625 619.367188 414.355469 633.539062 C 398.003906 638.988281 351.726562 634.628906 347.066406 633.539062 C 342.410156 632.449219 342.046875 643.347656 343.863281 645.164062 C 329.328125 646.621094 337.6875 660.425781 337.6875 660.425781 C 330.054688 671.328125 352.894531 679.890625 352.894531 679.890625 C 358.398438 695.308594 390.011719 705.121094 411.085938 701.851562 C 432.160156 698.578125 457.957031 686.226562 457.957031 686.226562 C 457.957031 686.226562 557.519531 691.3125 612.386719 666.242188 C 611.296875 627.722656 577.503906 588.347656 562.605469 594.042969 Z M 562.605469 594.042969 " fill-opacity="1" fill-rule="nonzero"/><path fill="#662520" d="M 404.335938 187.761719 C 404.300781 187.761719 404.265625 187.761719 404.226562 187.761719 C 402.011719 187.613281 399.5 187.445312 397.171875 186.511719 C 394.371094 185.390625 392.332031 183.242188 391.714844 180.773438 C 390.761719 176.945312 393.082031 173.652344 395.121094 170.746094 C 395.335938 170.441406 395.550781 170.136719 395.757812 169.835938 C 401.007812 162.210938 402.636719 152.34375 400.117188 143.4375 C 399.871094 142.570312 400.375 141.664062 401.246094 141.417969 C 402.113281 141.167969 403.019531 141.675781 403.265625 142.542969 C 406.046875 152.375 404.25 163.269531 398.453125 171.6875 C 398.238281 171.996094 398.023438 172.308594 397.800781 172.625 C 396.078125 175.074219 394.296875 177.605469 394.890625 179.980469 C 395.253906 181.433594 396.5625 182.742188 398.390625 183.476562 C 400.234375 184.21875 402.375 184.359375 404.441406 184.496094 C 405.34375 184.558594 406.027344 185.335938 405.964844 186.238281 C 405.90625 187.101562 405.1875 187.761719 404.332031 187.761719 Z M 404.335938 187.761719 " fill-opacity="1" fill-rule="nonzero"/><path fill="#662520" d="M 488.625 179.378906 C 488.433594 179.378906 488.242188 179.347656 488.050781 179.273438 C 484.671875 178.003906 482.691406 174 483.542969 170.160156 C 484.234375 167.050781 486.554688 164.300781 489.914062 162.613281 C 492.839844 161.144531 496.082031 160.65625 498.894531 160.316406 C 499.785156 160.210938 500.605469 160.84375 500.714844 161.738281 C 500.824219 162.636719 500.183594 163.449219 499.289062 163.558594 C 496.753906 163.867188 493.839844 164.300781 491.378906 165.535156 C 488.941406 166.761719 487.207031 168.753906 486.738281 170.867188 C 486.246094 173.074219 487.375 175.523438 489.203125 176.210938 C 490.050781 176.53125 490.476562 177.472656 490.160156 178.320312 C 489.914062 178.972656 489.292969 179.378906 488.628906 179.378906 Z M 488.625 179.378906 " fill-opacity="1" fill-rule="nonzero"/><path fill="#662520" d="M 313.703125 181.050781 C 313.492188 181.050781 313.28125 181.011719 313.074219 180.925781 C 312.242188 180.574219 311.847656 179.621094 312.195312 178.789062 C 313.152344 176.5 313.472656 173.988281 313.125 171.53125 C 312.960938 170.359375 312.675781 169.519531 312.234375 168.890625 C 311.761719 168.222656 311.007812 167.652344 309.792969 167.035156 C 307.851562 166.046875 306.128906 165.671875 304.675781 165.914062 C 303.785156 166.0625 302.941406 165.460938 302.792969 164.570312 C 302.644531 163.679688 303.246094 162.835938 304.136719 162.6875 C 306.292969 162.328125 308.695312 162.808594 311.273438 164.117188 C 312.339844 164.652344 313.871094 165.539062 314.902344 167 C 315.648438 168.054688 316.125 169.382812 316.363281 171.074219 C 316.792969 174.113281 316.394531 177.210938 315.214844 180.046875 C 314.953125 180.675781 314.347656 181.050781 313.703125 181.050781 Z M 313.703125 181.050781 " fill-opacity="1" fill-rule="nonzero"/><path fill="#662520" d="M 402.609375 259.21875 C 392.101562 259.21875 381.84375 257.484375 372.105469 254.066406 C 371.257812 253.769531 370.804688 252.832031 371.109375 251.980469 C 371.40625 251.125 372.339844 250.679688 373.195312 250.980469 C 392.304688 257.695312 414.175781 257.546875 433.203125 250.578125 C 434.054688 250.265625 434.992188 250.699219 435.300781 251.550781 C 435.609375 252.398438 435.175781 253.339844 434.324219 253.648438 C 424.4375 257.269531 413.984375 259.144531 403.253906 259.21875 C 403.039062 259.21875 402.824219 259.21875 402.613281 259.21875 Z M 402.609375 259.21875 " fill-opacity="1" fill-rule="nonzero"/><path fill="#662520" d="M 210.917969 637.621094 C 210.734375 637.621094 210.546875 637.589844 210.363281 637.523438 C 209.515625 637.21875 209.074219 636.28125 209.378906 635.429688 C 213.367188 624.332031 217.570312 611.164062 218.542969 597.667969 C 219.253906 587.789062 218.464844 573.363281 210.652344 560.71875 C 203.589844 549.296875 191.792969 541.902344 179.855469 541.429688 C 178.957031 541.394531 178.25 540.632812 178.285156 539.734375 C 178.324219 538.832031 179.074219 538.128906 179.984375 538.164062 C 192.992188 538.679688 205.808594 546.664062 213.429688 559 C 221.699219 572.386719 222.546875 587.542969 221.804688 597.902344 C 220.804688 611.792969 216.515625 625.226562 212.457031 636.535156 C 212.21875 637.203125 211.589844 637.617188 210.917969 637.617188 Z M 210.917969 637.621094 " fill-opacity="1" fill-rule="nonzero"/><path fill="#662520" d="M 233.90625 605.261719 C 233.765625 605.261719 233.621094 605.242188 233.472656 605.203125 C 232.601562 604.964844 232.089844 604.066406 232.328125 603.195312 C 237.585938 583.972656 234.460938 562.378906 223.972656 545.433594 C 213.480469 528.492188 195.546875 516.066406 175.992188 512.199219 C 175.105469 512.027344 174.535156 511.164062 174.707031 510.277344 C 174.882812 509.390625 175.742188 508.816406 176.628906 508.992188 C 197.054688 513.03125 215.792969 526.007812 226.75 543.710938 C 237.710938 561.414062 240.976562 583.972656 235.484375 604.054688 C 235.285156 604.78125 234.625 605.257812 233.90625 605.257812 Z M 233.90625 605.261719 " fill-opacity="1" fill-rule="nonzero"/><path fill="#662520" d="M 383.9375 655.449219 C 369.328125 655.449219 354.644531 652.316406 341.425781 646.261719 C 340.605469 645.890625 340.242188 644.914062 340.617188 644.097656 C 340.996094 643.277344 341.960938 642.917969 342.785156 643.289062 C 360.046875 651.195312 379.886719 653.953125 398.652344 651.0625 C 399.539062 650.925781 400.375 651.539062 400.515625 652.429688 C 400.652344 653.324219 400.039062 654.15625 399.148438 654.292969 C 394.128906 655.066406 389.035156 655.449219 383.933594 655.449219 Z M 383.9375 655.449219 " fill-opacity="1" fill-rule="nonzero"/><path fill="#662520" d="M 380.535156 671.777344 C 364.585938 671.777344 348.699219 668.113281 334.363281 661.097656 C 333.554688 660.703125 333.214844 659.722656 333.617188 658.910156 C 334.011719 658.101562 334.992188 657.761719 335.804688 658.164062 C 350.757812 665.480469 367.453125 669.035156 384.097656 668.445312 C 384.988281 668.410156 385.757812 669.117188 385.792969 670.023438 C 385.824219 670.925781 385.117188 671.683594 384.214844 671.714844 C 382.988281 671.761719 381.761719 671.78125 380.539062 671.78125 Z M 380.535156 671.777344 " fill-opacity="1" fill-rule="nonzero"/><path fill="#662520" d="M 379.65625 686.726562 C 369.46875 686.726562 359.347656 684.65625 349.929688 680.605469 C 349.101562 680.25 348.71875 679.285156 349.074219 678.457031 C 349.429688 677.628906 350.394531 677.242188 351.222656 677.597656 C 363.171875 682.742188 376.308594 684.546875 389.199219 682.816406 C 390.097656 682.699219 390.917969 683.324219 391.039062 684.21875 C 391.160156 685.113281 390.53125 685.9375 389.636719 686.058594 C 386.316406 686.5 382.984375 686.722656 379.65625 686.722656 Z M 379.65625 686.726562 " fill-opacity="1" fill-rule="nonzero"/><path fill="#662520" d="M 612.203125 667.304688 C 612.203125 667.304688 612.1875 667.304688 612.179688 667.304688 C 611.273438 667.292969 610.554688 666.554688 610.566406 665.648438 C 610.875 641.785156 599.453125 617.746094 580.761719 602.914062 C 576.855469 599.816406 573.667969 597.929688 570.425781 596.800781 C 566.449219 595.421875 562.460938 595.339844 559.179688 596.570312 C 558.332031 596.886719 557.390625 596.460938 557.074219 595.613281 C 556.753906 594.765625 557.179688 593.828125 558.027344 593.507812 C 562.019531 592.007812 566.804688 592.078125 571.496094 593.710938 C 575.101562 594.964844 578.582031 597.011719 582.792969 600.347656 C 592.390625 607.96875 600.335938 618.039062 605.769531 629.476562 C 611.203125 640.910156 613.988281 653.433594 613.832031 665.6875 C 613.820312 666.582031 613.089844 667.300781 612.199219 667.300781 Z M 612.203125 667.304688 " fill-opacity="1" fill-rule="nonzero"/><path fill="#662520" d="M 634.785156 590.652344 C 634.441406 590.652344 634.097656 590.546875 633.804688 590.324219 C 623.722656 582.742188 611.230469 578.304688 598.625 577.832031 C 586.023438 577.355469 573.234375 580.851562 562.617188 587.664062 C 561.859375 588.152344 560.847656 587.929688 560.355469 587.167969 C 559.871094 586.410156 560.09375 585.394531 560.851562 584.910156 C 572.023438 577.742188 585.480469 574.070312 598.75 574.5625 C 612.015625 575.054688 625.164062 579.722656 635.769531 587.707031 C 636.492188 588.25 636.632812 589.277344 636.09375 589.996094 C 635.773438 590.425781 635.28125 590.648438 634.785156 590.648438 Z M 634.785156 590.652344 " fill-opacity="1" fill-rule="nonzero"/><path fill="#662520" d="M 573.734375 570.878906 C 573.152344 570.878906 572.589844 570.566406 572.292969 570.019531 C 571.867188 569.222656 572.167969 568.230469 572.960938 567.804688 C 582.363281 562.765625 592.082031 557.550781 602.804688 555.125 C 614.867188 552.394531 626.601562 554.027344 634.996094 559.601562 C 635.746094 560.097656 635.949219 561.117188 635.453125 561.867188 C 634.957031 562.621094 633.9375 562.824219 633.1875 562.328125 C 625.535156 557.242188 614.722656 555.78125 603.527344 558.316406 C 593.238281 560.644531 583.71875 565.75 574.511719 570.6875 C 574.261719 570.820312 573.996094 570.882812 573.738281 570.882812 Z M 573.734375 570.878906 " fill-opacity="1" fill-rule="nonzero"/><path fill="#662520" d="M 380.664062 115.242188 C 381.1875 120.550781 372.171875 121.066406 361.097656 122.15625 C 350.023438 123.246094 341.078125 124.503906 340.554688 119.191406 C 340.035156 113.882812 348.433594 107.132812 359.511719 106.042969 C 370.589844 104.953125 380.144531 109.933594 380.667969 115.242188 Z M 380.664062 115.242188 " fill-opacity="1" fill-rule="nonzero"/><path fill="#662520" d="M 374.285156 150.335938 C 374.289062 151.082031 374.234375 151.820312 374.121094 152.550781 C 374.007812 153.28125 373.839844 153.988281 373.609375 154.679688 C 373.382812 155.367188 373.101562 156.023438 372.769531 156.644531 C 372.4375 157.265625 372.058594 157.839844 371.632812 158.367188 C 371.207031 158.898438 370.746094 159.371094 370.242188 159.789062 C 369.742188 160.203125 369.210938 160.558594 368.652344 160.84375 C 368.09375 161.132812 367.519531 161.351562 366.925781 161.5 C 366.332031 161.652344 365.730469 161.726562 365.125 161.730469 C 364.519531 161.734375 363.917969 161.667969 363.320312 161.527344 C 362.726562 161.382812 362.144531 161.171875 361.582031 160.890625 C 361.023438 160.609375 360.488281 160.265625 359.980469 159.855469 C 359.472656 159.445312 359.003906 158.980469 358.570312 158.457031 C 358.136719 157.933594 357.753906 157.363281 357.410156 156.746094 C 357.070312 156.128906 356.78125 155.476562 356.542969 154.792969 C 356.308594 154.105469 356.128906 153.398438 356.003906 152.667969 C 355.882812 151.941406 355.816406 151.203125 355.8125 150.460938 C 355.808594 149.714844 355.863281 148.976562 355.976562 148.246094 C 356.089844 147.515625 356.257812 146.808594 356.488281 146.117188 C 356.714844 145.429688 356.996094 144.773438 357.328125 144.152344 C 357.660156 143.53125 358.039062 142.957031 358.464844 142.429688 C 358.890625 141.898438 359.351562 141.425781 359.855469 141.007812 C 360.355469 140.59375 360.886719 140.238281 361.445312 139.953125 C 362.003906 139.664062 362.578125 139.445312 363.171875 139.296875 C 363.765625 139.144531 364.367188 139.070312 364.972656 139.066406 C 365.582031 139.0625 366.179688 139.128906 366.777344 139.269531 C 367.371094 139.414062 367.953125 139.625 368.515625 139.90625 C 369.078125 140.1875 369.609375 140.53125 370.117188 140.941406 C 370.625 141.351562 371.09375 141.816406 371.527344 142.339844 C 371.960938 142.863281 372.347656 143.433594 372.6875 144.050781 C 373.027344 144.667969 373.316406 145.320312 373.554688 146.003906 C 373.789062 146.691406 373.96875 147.398438 374.09375 148.128906 C 374.214844 148.855469 374.28125 149.59375 374.285156 150.335938 Z M 374.285156 150.335938 " fill-opacity="1" fill-rule="nonzero"/><path fill="#662520" d="M 418.3125 115.242188 C 417.789062 120.550781 426.804688 121.066406 437.878906 122.15625 C 448.953125 123.246094 457.898438 124.503906 458.421875 119.191406 C 458.941406 113.882812 450.542969 107.132812 439.464844 106.042969 C 428.386719 104.953125 418.832031 109.933594 418.308594 115.242188 Z M 418.3125 115.242188 " fill-opacity="1" fill-rule="nonzero"/><path fill="#662520" d="M 434.019531 139.085938 C 434.625 139.089844 435.226562 139.164062 435.820312 139.3125 C 436.414062 139.464844 436.988281 139.683594 437.546875 139.96875 C 438.105469 140.257812 438.636719 140.613281 439.136719 141.027344 C 439.640625 141.445312 440.101562 141.917969 440.527344 142.445312 C 440.953125 142.976562 441.332031 143.550781 441.664062 144.171875 C 442 144.792969 442.277344 145.449219 442.507812 146.136719 C 442.734375 146.824219 442.90625 147.535156 443.019531 148.265625 C 443.132812 148.996094 443.1875 149.734375 443.179688 150.480469 C 443.175781 151.222656 443.113281 151.960938 442.988281 152.6875 C 442.867188 153.417969 442.683594 154.125 442.449219 154.8125 C 442.210938 155.496094 441.921875 156.148438 441.582031 156.765625 C 441.242188 157.382812 440.855469 157.949219 440.421875 158.472656 C 439.988281 158.996094 439.519531 159.464844 439.011719 159.875 C 438.507812 160.285156 437.972656 160.628906 437.410156 160.910156 C 436.847656 161.191406 436.269531 161.402344 435.671875 161.542969 C 435.078125 161.6875 434.476562 161.753906 433.867188 161.75 C 433.261719 161.746094 432.664062 161.667969 432.070312 161.519531 C 431.476562 161.371094 430.898438 161.152344 430.339844 160.863281 C 429.78125 160.574219 429.25 160.222656 428.75 159.804688 C 428.25 159.390625 427.785156 158.917969 427.359375 158.386719 C 426.933594 157.859375 426.554688 157.285156 426.222656 156.664062 C 425.890625 156.042969 425.609375 155.386719 425.382812 154.699219 C 425.15625 154.007812 424.984375 153.300781 424.871094 152.566406 C 424.757812 151.835938 424.703125 151.101562 424.707031 150.355469 C 424.710938 149.613281 424.777344 148.875 424.898438 148.144531 C 425.023438 147.417969 425.203125 146.710938 425.441406 146.023438 C 425.675781 145.335938 425.964844 144.6875 426.304688 144.070312 C 426.648438 143.453125 427.035156 142.882812 427.464844 142.359375 C 427.898438 141.835938 428.367188 141.371094 428.875 140.960938 C 429.382812 140.550781 429.917969 140.203125 430.480469 139.921875 C 431.042969 139.644531 431.621094 139.429688 432.214844 139.289062 C 432.8125 139.148438 433.414062 139.082031 434.019531 139.085938 Z M 434.019531 139.085938 " fill-opacity="1" fill-rule="nonzero"/><path fill="#f7d7b7" d="M 438.007812 196.796875 C 440.308594 210.203125 429.382812 223.269531 413.597656 225.984375 C 397.816406 228.695312 383.152344 220.027344 380.851562 206.617188 C 378.546875 193.210938 392.496094 197.730469 408.28125 195.019531 C 424.0625 192.308594 435.703125 183.390625 438.007812 196.800781 Z M 438.007812 196.796875 " fill-opacity="1" fill-rule="nonzero"/><path fill="#f49f83" d="M 148.738281 639.347656 C 191.710938 640.953125 199.609375 584.84375 193.796875 517.257812 C 187.980469 449.675781 188.34375 420.605469 188.34375 420.605469 L 141.472656 431.140625 C 141.472656 431.140625 127.464844 493.132812 117.753906 532.085938 C 108.046875 571.035156 109.859375 637.894531 148.738281 639.347656 Z M 148.738281 639.347656 " fill-opacity="1" fill-rule="nonzero"/><path fill="#0f844f" d="M 156.003906 424.601562 C 156.003906 424.601562 160.140625 466.980469 159.34375 470.683594 C 158.550781 474.386719 206.875 458.03125 206.875 458.03125 L 181.441406 406.136719 L 176.355469 368.644531 C 176.355469 368.644531 201.0625 371.1875 202.515625 330.492188 C 203.96875 289.796875 191.25 279.242188 181.441406 293.058594 C 161.820312 265.085938 145.832031 267.628906 140.382812 296.699219 C 120.03125 289.433594 115.308594 321.40625 123.304688 344.664062 C 131.296875 367.917969 145.742188 372.324219 145.742188 372.324219 Z M 156.003906 424.601562 " fill-opacity="1" fill-rule="nonzero"/><path fill="#662520" d="M 147.964844 375.464844 C 147.335938 375.464844 146.734375 375.097656 146.464844 374.484375 C 137.777344 354.59375 133.097656 332.605469 132.9375 310.898438 C 132.933594 309.996094 133.660156 309.261719 134.5625 309.253906 L 134.574219 309.253906 C 135.472656 309.253906 136.203125 309.976562 136.210938 310.878906 C 136.363281 332.144531 140.945312 353.683594 149.457031 373.175781 C 149.816406 374.003906 149.441406 374.96875 148.613281 375.328125 C 148.398438 375.421875 148.179688 375.464844 147.960938 375.464844 Z M 147.964844 375.464844 " fill-opacity="1" fill-rule="nonzero"/><path fill="#662520" d="M 165.324219 367.835938 C 164.695312 367.835938 164.09375 367.46875 163.824219 366.847656 C 155.488281 347.644531 151.816406 326.449219 153.207031 305.5625 C 153.269531 304.660156 154.046875 303.976562 154.949219 304.039062 C 155.847656 304.101562 156.53125 304.878906 156.46875 305.777344 C 155.113281 326.152344 158.699219 346.820312 166.828125 365.546875 C 167.1875 366.378906 166.804688 367.339844 165.976562 367.699219 C 165.765625 367.789062 165.542969 367.835938 165.324219 367.835938 Z M 165.324219 367.835938 " fill-opacity="1" fill-rule="nonzero"/><path fill="#662520" d="M 178.613281 372.886719 C 178.488281 372.886719 178.359375 372.871094 178.230469 372.839844 C 177.351562 372.628906 176.8125 371.746094 177.023438 370.871094 C 182.347656 348.605469 183.59375 325.800781 180.730469 303.085938 C 180.617188 302.1875 181.25 301.371094 182.144531 301.257812 C 183.035156 301.144531 183.859375 301.777344 183.972656 302.675781 C 186.890625 325.78125 185.621094 348.984375 180.203125 371.632812 C 180.023438 372.378906 179.351562 372.886719 178.613281 372.886719 Z M 178.613281 372.886719 " fill-opacity="1" fill-rule="nonzero"/><path fill="#f49f83" d="M 131.296875 367.917969 C 116.398438 377 122.210938 404.980469 124.757812 416.972656 C 127.300781 428.960938 127.300781 445.675781 164 440.953125 C 207.898438 435.304688 198.15625 419.152344 190.886719 414.066406 C 198.519531 398.441406 186.890625 394.078125 186.890625 394.078125 C 197.066406 382.089844 185.191406 379.183594 185.191406 379.183594 C 192.703125 359.558594 178.898438 353.019531 165.816406 355.5625 C 152.734375 358.105469 131.296875 367.917969 131.296875 367.917969 Z M 131.296875 367.917969 " fill-opacity="1" fill-rule="nonzero"/><path fill="#662520" d="M 157.792969 442.953125 C 153.816406 442.953125 149.84375 442.609375 145.929688 441.921875 C 145.039062 441.765625 144.445312 440.921875 144.601562 440.03125 C 144.757812 439.140625 145.609375 438.542969 146.496094 438.703125 C 159.90625 441.058594 174.058594 439.132812 186.34375 433.277344 C 190.925781 431.089844 193.4375 428.695312 194.027344 425.9375 C 194.679688 422.90625 193.097656 419.53125 189.050781 415.316406 C 188.4375 414.683594 188.441406 413.679688 189.050781 413.046875 C 191.425781 410.585938 192.527344 406.96875 191.921875 403.605469 C 191.320312 400.242188 189.03125 397.230469 185.949219 395.75 C 185.414062 395.492188 185.058594 394.964844 185.027344 394.375 C 184.992188 393.78125 185.28125 393.214844 185.78125 392.898438 C 188.492188 391.175781 190.148438 388.191406 189.894531 385.476562 C 189.761719 384.039062 188.972656 382.605469 187.777344 381.632812 C 186.773438 380.808594 185.617188 380.429688 184.507812 380.542969 C 183.832031 380.617188 183.175781 380.261719 182.867188 379.652344 C 182.5625 379.039062 182.667969 378.300781 183.132812 377.804688 C 186.667969 374.011719 186.546875 367.253906 182.855469 362.738281 C 179.523438 358.664062 173.722656 356.359375 167.347656 356.578125 C 161.03125 356.792969 155.058594 359.21875 150.050781 361.5625 C 148.464844 362.304688 146.859375 363.097656 145.308594 363.863281 C 141.289062 365.84375 137.132812 367.890625 132.769531 369.363281 C 131.914062 369.652344 130.984375 369.191406 130.699219 368.335938 C 130.410156 367.480469 130.867188 366.550781 131.726562 366.265625 C 135.882812 364.863281 139.941406 362.863281 143.863281 360.929688 C 145.429688 360.15625 147.046875 359.355469 148.664062 358.601562 C 153.664062 356.261719 160.292969 353.546875 167.242188 353.3125 C 174.636719 353.058594 181.414062 355.808594 185.386719 360.671875 C 189.386719 365.566406 190.015625 372.613281 187.246094 377.644531 C 188.164062 377.953125 189.042969 378.445312 189.84375 379.097656 C 191.703125 380.613281 192.9375 382.882812 193.148438 385.171875 C 193.445312 388.382812 192.0625 391.6875 189.527344 394.105469 C 192.425781 396.234375 194.503906 399.484375 195.144531 403.03125 C 195.835938 406.902344 194.800781 411.027344 192.417969 414.140625 C 195.253906 417.296875 198.273438 421.714844 197.226562 426.628906 C 196.40625 430.441406 193.308594 433.582031 187.75 436.234375 C 178.4375 440.667969 168.109375 442.957031 157.792969 442.957031 Z M 157.792969 442.953125 " fill-opacity="1" fill-rule="nonzero"/><path fill="#662520" d="M 155.851562 387.386719 C 155.113281 387.386719 154.445312 386.886719 154.265625 386.136719 C 154.054688 385.257812 154.59375 384.375 155.46875 384.164062 L 184.859375 377.046875 C 185.734375 376.832031 186.621094 377.371094 186.832031 378.246094 C 187.042969 379.125 186.507812 380.011719 185.625 380.222656 L 156.234375 387.339844 C 156.105469 387.371094 155.976562 387.386719 155.847656 387.386719 Z M 155.851562 387.386719 " fill-opacity="1" fill-rule="nonzero"/><path fill="#662520" d="M 157.828125 404.328125 C 157.125 404.328125 156.472656 403.863281 156.261719 403.15625 C 156.003906 402.292969 156.503906 401.378906 157.367188 401.125 L 187.839844 392.113281 C 188.703125 391.859375 189.617188 392.355469 189.871094 393.21875 C 190.128906 394.082031 189.632812 394.996094 188.765625 395.25 L 158.292969 404.261719 C 158.136719 404.308594 157.980469 404.328125 157.828125 404.328125 Z M 157.828125 404.328125 " fill-opacity="1" fill-rule="nonzero"/><path fill="#662520" d="M 161.804688 421.703125 C 161.128906 421.703125 160.5 421.28125 160.265625 420.613281 C 159.976562 419.804688 160.363281 418.917969 161.144531 418.570312 L 162.035156 418.179688 C 162.335938 418.042969 162.65625 418.011719 162.960938 418.0625 L 189.511719 410.882812 C 190.382812 410.644531 191.28125 411.160156 191.515625 412.035156 C 191.753906 412.90625 191.238281 413.804688 190.363281 414.039062 L 162.234375 421.648438 C 162.089844 421.6875 161.945312 421.707031 161.804688 421.707031 Z M 161.804688 421.703125 " fill-opacity="1" fill-rule="nonzero"/><path fill="#662520" d="M 458.503906 55.0625 C 458.320312 55.0625 458.140625 55.035156 457.957031 54.96875 C 423.714844 42.871094 389.535156 43.488281 366.890625 46.132812 C 342.347656 49 325.75 54.789062 325.585938 54.847656 C 324.730469 55.148438 323.796875 54.699219 323.5 53.847656 C 323.199219 52.996094 323.644531 52.0625 324.5 51.761719 C 330.316406 49.707031 346.589844 45.214844 366.511719 42.882812 C 389.5 40.199219 424.214844 39.582031 459.046875 51.882812 C 459.898438 52.1875 460.347656 53.121094 460.042969 53.96875 C 459.808594 54.640625 459.175781 55.058594 458.503906 55.058594 Z M 458.503906 55.0625 " fill-opacity="1" fill-rule="nonzero"/><g clip-path="url(#07fc79567c)"><path fill="#f7d7b7" d="M 306.242188 691.195312 C 306.242188 692.128906 306.195312 693.054688 306.105469 693.980469 C 306.015625 694.90625 305.878906 695.824219 305.695312 696.738281 C 305.515625 697.648438 305.289062 698.550781 305.019531 699.441406 C 304.75 700.332031 304.4375 701.207031 304.082031 702.066406 C 303.722656 702.925781 303.328125 703.765625 302.886719 704.585938 C 302.449219 705.40625 301.972656 706.203125 301.457031 706.976562 C 300.9375 707.75 300.386719 708.496094 299.796875 709.214844 C 299.207031 709.933594 298.582031 710.621094 297.921875 711.277344 C 297.265625 711.9375 296.578125 712.5625 295.859375 713.152344 C 295.140625 713.742188 294.394531 714.292969 293.621094 714.8125 C 292.847656 715.328125 292.050781 715.804688 291.230469 716.242188 C 290.410156 716.683594 289.570312 717.078125 288.710938 717.4375 C 287.851562 717.792969 286.976562 718.105469 286.085938 718.375 C 285.195312 718.644531 284.292969 718.871094 283.382812 719.050781 C 282.46875 719.234375 281.550781 719.371094 280.625 719.460938 C 279.699219 719.550781 278.773438 719.597656 277.839844 719.597656 C 276.910156 719.597656 275.984375 719.550781 275.058594 719.460938 C 274.132812 719.371094 273.214844 719.234375 272.300781 719.050781 C 271.390625 718.871094 270.488281 718.644531 269.597656 718.375 C 268.707031 718.105469 267.832031 717.792969 266.972656 717.4375 C 266.113281 717.078125 265.273438 716.683594 264.453125 716.242188 C 263.632812 715.804688 262.835938 715.328125 262.0625 714.8125 C 261.289062 714.292969 260.542969 713.742188 259.824219 713.152344 C 259.105469 712.5625 258.417969 711.9375 257.757812 711.277344 C 257.101562 710.621094 256.476562 709.933594 255.886719 709.214844 C 255.296875 708.496094 254.746094 707.75 254.226562 706.976562 C 253.710938 706.203125 253.234375 705.40625 252.792969 704.585938 C 252.355469 703.765625 251.960938 702.925781 251.601562 702.066406 C 251.246094 701.207031 250.933594 700.332031 250.664062 699.441406 C 250.394531 698.550781 250.167969 697.648438 249.988281 696.738281 C 249.804688 695.824219 249.667969 694.90625 249.578125 693.980469 C 249.488281 693.054688 249.441406 692.128906 249.441406 691.195312 C 249.441406 690.265625 249.488281 689.339844 249.578125 688.414062 C 249.667969 687.488281 249.804688 686.570312 249.988281 685.65625 C 250.167969 684.742188 250.394531 683.84375 250.664062 682.953125 C 250.933594 682.0625 251.246094 681.1875 251.601562 680.328125 C 251.960938 679.46875 252.355469 678.628906 252.792969 677.808594 C 253.234375 676.988281 253.710938 676.191406 254.226562 675.417969 C 254.746094 674.644531 255.296875 673.898438 255.886719 673.179688 C 256.476562 672.460938 257.101562 671.773438 257.757812 671.113281 C 258.417969 670.457031 259.105469 669.832031 259.824219 669.242188 C 260.542969 668.652344 261.289062 668.101562 262.0625 667.582031 C 262.835938 667.066406 263.632812 666.589844 264.453125 666.148438 C 265.273438 665.710938 266.113281 665.316406 266.972656 664.957031 C 267.832031 664.601562 268.707031 664.289062 269.597656 664.019531 C 270.488281 663.75 271.390625 663.523438 272.300781 663.34375 C 273.214844 663.160156 274.132812 663.023438 275.058594 662.933594 C 275.984375 662.84375 276.910156 662.796875 277.839844 662.796875 C 278.773438 662.796875 279.699219 662.84375 280.625 662.933594 C 281.550781 663.023438 282.46875 663.160156 283.382812 663.34375 C 284.292969 663.523438 285.195312 663.75 286.085938 664.019531 C 286.976562 664.289062 287.851562 664.601562 288.710938 664.957031 C 289.570312 665.316406 290.410156 665.710938 291.230469 666.148438 C 292.050781 666.589844 292.847656 667.066406 293.621094 667.582031 C 294.394531 668.101562 295.140625 668.652344 295.859375 669.242188 C 296.578125 669.832031 297.265625 670.457031 297.921875 671.113281 C 298.582031 671.773438 299.207031 672.460938 299.796875 673.179688 C 300.386719 673.898438 300.9375 674.644531 301.457031 675.417969 C 301.972656 676.191406 302.449219 676.988281 302.886719 677.808594 C 303.328125 678.628906 303.722656 679.46875 304.082031 680.328125 C 304.4375 681.1875 304.75 682.0625 305.019531 682.953125 C 305.289062 683.84375 305.515625 684.742188 305.695312 685.65625 C 305.878906 686.570312 306.015625 687.488281 306.105469 688.414062 C 306.195312 689.339844 306.242188 690.265625 306.242188 691.195312 Z M 306.242188 691.195312 " fill-opacity="1" fill-rule="nonzero"/></g></svg>